%TF.GenerationSoftware,KiCad,Pcbnew,(6.0.2)*%
%TF.CreationDate,2023-11-30T13:56:03-08:00*%
%TF.ProjectId,star,73746172-2e6b-4696-9361-645f70636258,rev?*%
%TF.SameCoordinates,Original*%
%TF.FileFunction,Copper,L1,Top*%
%TF.FilePolarity,Positive*%
%FSLAX46Y46*%
G04 Gerber Fmt 4.6, Leading zero omitted, Abs format (unit mm)*
G04 Created by KiCad (PCBNEW (6.0.2)) date 2023-11-30 13:56:03*
%MOMM*%
%LPD*%
G01*
G04 APERTURE LIST*
%TA.AperFunction,ComponentPad*%
%ADD10R,1.800000X1.800000*%
%TD*%
%TA.AperFunction,ComponentPad*%
%ADD11C,1.800000*%
%TD*%
%TA.AperFunction,ComponentPad*%
%ADD12C,1.600000*%
%TD*%
%TA.AperFunction,ComponentPad*%
%ADD13R,1.600000X1.600000*%
%TD*%
%TA.AperFunction,ComponentPad*%
%ADD14O,1.600000X1.600000*%
%TD*%
%TA.AperFunction,ComponentPad*%
%ADD15R,1.500000X1.500000*%
%TD*%
%TA.AperFunction,ComponentPad*%
%ADD16C,1.500000*%
%TD*%
%TA.AperFunction,ComponentPad*%
%ADD17R,1.700000X1.700000*%
%TD*%
%TA.AperFunction,ComponentPad*%
%ADD18O,1.700000X1.700000*%
%TD*%
%TA.AperFunction,Conductor*%
%ADD19C,0.500000*%
%TD*%
%TA.AperFunction,Conductor*%
%ADD20C,1.000000*%
%TD*%
G04 APERTURE END LIST*
D10*
%TO.P,D40,1,K*%
%TO.N,Net-(D40-Pad1)*%
X165100000Y-121920000D03*
D11*
%TO.P,D40,2,A*%
%TO.N,VCC*%
X162560000Y-121920000D03*
%TD*%
D10*
%TO.P,D5,1,K*%
%TO.N,Net-(D5-Pad1)*%
X165105000Y-71120000D03*
D11*
%TO.P,D5,2,A*%
%TO.N,VCC*%
X162565000Y-71120000D03*
%TD*%
D12*
%TO.P,C4,2*%
%TO.N,GND*%
X167664888Y-66040000D03*
D13*
%TO.P,C4,1*%
%TO.N,VCC*%
X165164888Y-66040000D03*
%TD*%
D12*
%TO.P,R46,1*%
%TO.N,Net-(R10-Pad1)*%
X160020000Y-128270000D03*
D14*
%TO.P,R46,2*%
%TO.N,Net-(D46-Pad1)*%
X167640000Y-128270000D03*
%TD*%
D10*
%TO.P,D16,1,K*%
%TO.N,Net-(D16-Pad1)*%
X124460000Y-91440000D03*
D11*
%TO.P,D16,2,A*%
%TO.N,VCC*%
X121920000Y-91440000D03*
%TD*%
D10*
%TO.P,D19,1,K*%
%TO.N,Net-(D19-Pad1)*%
X154940000Y-91440000D03*
D11*
%TO.P,D19,2,A*%
%TO.N,VCC*%
X152400000Y-91440000D03*
%TD*%
D10*
%TO.P,D27,1,K*%
%TO.N,Net-(D27-Pad1)*%
X175260000Y-101600000D03*
D11*
%TO.P,D27,2,A*%
%TO.N,VCC*%
X172720000Y-101600000D03*
%TD*%
D12*
%TO.P,C2,2*%
%TO.N,Net-(C2-Pad2)*%
X144740000Y-59690000D03*
%TO.P,C2,1*%
%TO.N,Net-(C2-Pad1)*%
X139740000Y-59690000D03*
%TD*%
%TO.P,R23,1*%
%TO.N,Net-(R11-Pad1)*%
X137160000Y-105410000D03*
D14*
%TO.P,R23,2*%
%TO.N,Net-(D23-Pad1)*%
X137160000Y-97790000D03*
%TD*%
D10*
%TO.P,D29,1,K*%
%TO.N,Net-(D29-Pad1)*%
X134620000Y-111760000D03*
D11*
%TO.P,D29,2,A*%
%TO.N,VCC*%
X132080000Y-111760000D03*
%TD*%
D12*
%TO.P,R6,1*%
%TO.N,Net-(R1-Pad1)*%
X170180000Y-74930000D03*
D14*
%TO.P,R6,2*%
%TO.N,Net-(D6-Pad1)*%
X177800000Y-74930000D03*
%TD*%
D10*
%TO.P,D18,1,K*%
%TO.N,Net-(D18-Pad1)*%
X144780000Y-91440000D03*
D11*
%TO.P,D18,2,A*%
%TO.N,VCC*%
X142240000Y-91440000D03*
%TD*%
D12*
%TO.P,R50,1*%
%TO.N,VCC*%
X137160000Y-62230000D03*
D14*
%TO.P,R50,2*%
%TO.N,Net-(C2-Pad1)*%
X144780000Y-62230000D03*
%TD*%
D10*
%TO.P,D12,1,K*%
%TO.N,Net-(D12-Pad1)*%
X165105000Y-81280000D03*
D11*
%TO.P,D12,2,A*%
%TO.N,VCC*%
X162565000Y-81280000D03*
%TD*%
D12*
%TO.P,R1,1*%
%TO.N,Net-(R1-Pad1)*%
X129540000Y-64770000D03*
D14*
%TO.P,R1,2*%
%TO.N,Net-(D1-Pad1)*%
X137160000Y-64770000D03*
%TD*%
D10*
%TO.P,D11,1,K*%
%TO.N,Net-(D11-Pad1)*%
X154940000Y-81280000D03*
D11*
%TO.P,D11,2,A*%
%TO.N,VCC*%
X152400000Y-81280000D03*
%TD*%
D10*
%TO.P,D43,1,K*%
%TO.N,Net-(D43-Pad1)*%
X195580000Y-121920000D03*
D11*
%TO.P,D43,2,A*%
%TO.N,VCC*%
X193040000Y-121920000D03*
%TD*%
D10*
%TO.P,D39,1,K*%
%TO.N,Net-(D39-Pad1)*%
X154940000Y-121920000D03*
D11*
%TO.P,D39,2,A*%
%TO.N,VCC*%
X152400000Y-121920000D03*
%TD*%
D12*
%TO.P,R25,1*%
%TO.N,Net-(R11-Pad1)*%
X149860000Y-97790000D03*
D14*
%TO.P,R25,2*%
%TO.N,Net-(D25-Pad1)*%
X157480000Y-97790000D03*
%TD*%
D12*
%TO.P,R31,1*%
%TO.N,Net-(R11-Pad1)*%
X149860000Y-107950000D03*
D14*
%TO.P,R31,2*%
%TO.N,Net-(D31-Pad1)*%
X157480000Y-107950000D03*
%TD*%
D12*
%TO.P,R4,1*%
%TO.N,Net-(R10-Pad1)*%
X139700000Y-74930000D03*
D14*
%TO.P,R4,2*%
%TO.N,Net-(D4-Pad1)*%
X147320000Y-74930000D03*
%TD*%
D10*
%TO.P,D26,1,K*%
%TO.N,Net-(D26-Pad1)*%
X165105000Y-101600000D03*
D11*
%TO.P,D26,2,A*%
%TO.N,VCC*%
X162565000Y-101600000D03*
%TD*%
D14*
%TO.P,R39,2*%
%TO.N,Net-(D39-Pad1)*%
X157480000Y-118110000D03*
D12*
%TO.P,R39,1*%
%TO.N,Net-(R11-Pad1)*%
X149860000Y-118110000D03*
%TD*%
%TO.P,R45,1*%
%TO.N,Net-(R10-Pad1)*%
X139700000Y-128270000D03*
D14*
%TO.P,R45,2*%
%TO.N,Net-(D45-Pad1)*%
X147320000Y-128270000D03*
%TD*%
D12*
%TO.P,R27,1*%
%TO.N,Net-(R11-Pad1)*%
X170180000Y-105410000D03*
D14*
%TO.P,R27,2*%
%TO.N,Net-(D27-Pad1)*%
X170180000Y-97790000D03*
%TD*%
D10*
%TO.P,D17,1,K*%
%TO.N,Net-(D17-Pad1)*%
X134620000Y-91440000D03*
D11*
%TO.P,D17,2,A*%
%TO.N,VCC*%
X132080000Y-91440000D03*
%TD*%
D15*
%TO.P,Q2,1,E*%
%TO.N,GND*%
X148590000Y-59690000D03*
D16*
%TO.P,Q2,2,B*%
%TO.N,Net-(C2-Pad2)*%
X148590000Y-57150000D03*
%TO.P,Q2,3,C*%
%TO.N,/CLOCK*%
X148590000Y-54610000D03*
%TD*%
D10*
%TO.P,D30,1,K*%
%TO.N,Net-(D30-Pad1)*%
X144780000Y-111760000D03*
D11*
%TO.P,D30,2,A*%
%TO.N,VCC*%
X142240000Y-111760000D03*
%TD*%
D12*
%TO.P,R26,1*%
%TO.N,Net-(R11-Pad1)*%
X160020000Y-105410000D03*
D14*
%TO.P,R26,2*%
%TO.N,Net-(D26-Pad1)*%
X160020000Y-97790000D03*
%TD*%
D10*
%TO.P,D45,1,K*%
%TO.N,Net-(D45-Pad1)*%
X144780000Y-132080000D03*
D11*
%TO.P,D45,2,A*%
%TO.N,VCC*%
X142240000Y-132080000D03*
%TD*%
D12*
%TO.P,R5,1*%
%TO.N,Net-(R10-Pad1)*%
X160020000Y-74930000D03*
D14*
%TO.P,R5,2*%
%TO.N,Net-(D5-Pad1)*%
X167640000Y-74930000D03*
%TD*%
D12*
%TO.P,R11,1*%
%TO.N,Net-(R11-Pad1)*%
X149860000Y-77470000D03*
D14*
%TO.P,R11,2*%
%TO.N,Net-(D11-Pad1)*%
X157480000Y-77470000D03*
%TD*%
D12*
%TO.P,R35,1*%
%TO.N,Net-(R1-Pad1)*%
X116840000Y-125730000D03*
D14*
%TO.P,R35,2*%
%TO.N,Net-(D35-Pad1)*%
X116840000Y-118110000D03*
%TD*%
D17*
%TO.P,J1,1,Pin_1*%
%TO.N,VCC*%
X165095000Y-60890000D03*
D18*
%TO.P,J1,2,Pin_2*%
%TO.N,GND*%
X167635000Y-60890000D03*
%TD*%
D12*
%TO.P,R16,1*%
%TO.N,Net-(R10-Pad1)*%
X127000000Y-95250000D03*
D14*
%TO.P,R16,2*%
%TO.N,Net-(D16-Pad1)*%
X127000000Y-87630000D03*
%TD*%
D10*
%TO.P,D25,1,K*%
%TO.N,Net-(D25-Pad1)*%
X154945000Y-101600000D03*
D11*
%TO.P,D25,2,A*%
%TO.N,VCC*%
X152405000Y-101600000D03*
%TD*%
D12*
%TO.P,R43,1*%
%TO.N,Net-(R1-Pad1)*%
X190500000Y-125730000D03*
D14*
%TO.P,R43,2*%
%TO.N,Net-(D43-Pad1)*%
X190500000Y-118110000D03*
%TD*%
D10*
%TO.P,D41,1,K*%
%TO.N,Net-(D41-Pad1)*%
X175265000Y-121920000D03*
D11*
%TO.P,D41,2,A*%
%TO.N,VCC*%
X172725000Y-121920000D03*
%TD*%
D10*
%TO.P,D47,1,K*%
%TO.N,Net-(D47-Pad1)*%
X175265000Y-132080000D03*
D11*
%TO.P,D47,2,A*%
%TO.N,VCC*%
X172725000Y-132080000D03*
%TD*%
D10*
%TO.P,D14,1,K*%
%TO.N,Net-(D14-Pad1)*%
X184785000Y-81280000D03*
D11*
%TO.P,D14,2,A*%
%TO.N,VCC*%
X182245000Y-81280000D03*
%TD*%
D15*
%TO.P,Q1,1,E*%
%TO.N,GND*%
X148590000Y-67310000D03*
D16*
%TO.P,Q1,2,B*%
%TO.N,Net-(C3-Pad1)*%
X148590000Y-64770000D03*
%TO.P,Q1,3,C*%
%TO.N,Net-(C2-Pad1)*%
X148590000Y-62230000D03*
%TD*%
D10*
%TO.P,D42,1,K*%
%TO.N,Net-(D42-Pad1)*%
X185420000Y-121920000D03*
D11*
%TO.P,D42,2,A*%
%TO.N,VCC*%
X182880000Y-121920000D03*
%TD*%
D12*
%TO.P,C3,1*%
%TO.N,Net-(C3-Pad1)*%
X144740000Y-64770000D03*
%TO.P,C3,2*%
%TO.N,/CLOCK*%
X139740000Y-64770000D03*
%TD*%
%TO.P,R2,1*%
%TO.N,Net-(R1-Pad1)*%
X170180000Y-64770000D03*
D14*
%TO.P,R2,2*%
%TO.N,Net-(D2-Pad1)*%
X177800000Y-64770000D03*
%TD*%
D12*
%TO.P,R51,1*%
%TO.N,VCC*%
X137160000Y-54610000D03*
D14*
%TO.P,R51,2*%
%TO.N,/CLOCK*%
X144780000Y-54610000D03*
%TD*%
D12*
%TO.P,R52,1*%
%TO.N,VCC*%
X137160000Y-57150000D03*
D14*
%TO.P,R52,2*%
%TO.N,Net-(C2-Pad2)*%
X144780000Y-57150000D03*
%TD*%
D12*
%TO.P,R33,1*%
%TO.N,Net-(R10-Pad1)*%
X170180000Y-115570000D03*
D14*
%TO.P,R33,2*%
%TO.N,Net-(D33-Pad1)*%
X170180000Y-107950000D03*
%TD*%
D12*
%TO.P,R29,1*%
%TO.N,Net-(R10-Pad1)*%
X137160000Y-115570000D03*
D14*
%TO.P,R29,2*%
%TO.N,Net-(D29-Pad1)*%
X137160000Y-107950000D03*
%TD*%
D10*
%TO.P,D24,1,K*%
%TO.N,Net-(D24-Pad1)*%
X144780000Y-101600000D03*
D11*
%TO.P,D24,2,A*%
%TO.N,VCC*%
X142240000Y-101600000D03*
%TD*%
D12*
%TO.P,R13,1*%
%TO.N,Net-(R1-Pad1)*%
X170180000Y-85090000D03*
D14*
%TO.P,R13,2*%
%TO.N,Net-(D13-Pad1)*%
X170180000Y-77470000D03*
%TD*%
D12*
%TO.P,R19,1*%
%TO.N,Net-(R11-Pad1)*%
X149860000Y-87630000D03*
D14*
%TO.P,R19,2*%
%TO.N,Net-(D19-Pad1)*%
X157480000Y-87630000D03*
%TD*%
D10*
%TO.P,D20,1,K*%
%TO.N,Net-(D20-Pad1)*%
X165100000Y-91440000D03*
D11*
%TO.P,D20,2,A*%
%TO.N,VCC*%
X162560000Y-91440000D03*
%TD*%
D12*
%TO.P,R15,1*%
%TO.N,Net-(R1-Pad1)*%
X190500000Y-85090000D03*
D14*
%TO.P,R15,2*%
%TO.N,Net-(D15-Pad1)*%
X190500000Y-77470000D03*
%TD*%
D12*
%TO.P,R24,1*%
%TO.N,Net-(R11-Pad1)*%
X147320000Y-105410000D03*
D14*
%TO.P,R24,2*%
%TO.N,Net-(D24-Pad1)*%
X147320000Y-97790000D03*
%TD*%
D10*
%TO.P,D3,1,K*%
%TO.N,Net-(D3-Pad1)*%
X134620000Y-71120000D03*
D11*
%TO.P,D3,2,A*%
%TO.N,VCC*%
X132080000Y-71120000D03*
%TD*%
D12*
%TO.P,R8,1*%
%TO.N,Net-(R1-Pad1)*%
X127000000Y-85090000D03*
D14*
%TO.P,R8,2*%
%TO.N,Net-(D8-Pad1)*%
X127000000Y-77470000D03*
%TD*%
D10*
%TO.P,D10,1,K*%
%TO.N,Net-(D10-Pad1)*%
X144780000Y-81280000D03*
D11*
%TO.P,D10,2,A*%
%TO.N,VCC*%
X142240000Y-81280000D03*
%TD*%
D10*
%TO.P,D1,1,K*%
%TO.N,Net-(D1-Pad1)*%
X134625000Y-60960000D03*
D11*
%TO.P,D1,2,A*%
%TO.N,VCC*%
X132085000Y-60960000D03*
%TD*%
D12*
%TO.P,R37,1*%
%TO.N,Net-(R1-Pad1)*%
X137160000Y-125730000D03*
D14*
%TO.P,R37,2*%
%TO.N,Net-(D37-Pad1)*%
X137160000Y-118110000D03*
%TD*%
D12*
%TO.P,R30,1*%
%TO.N,Net-(R10-Pad1)*%
X147320000Y-115570000D03*
D14*
%TO.P,R30,2*%
%TO.N,Net-(D30-Pad1)*%
X147320000Y-107950000D03*
%TD*%
D10*
%TO.P,D4,1,K*%
%TO.N,Net-(D4-Pad1)*%
X144785000Y-71120000D03*
D11*
%TO.P,D4,2,A*%
%TO.N,VCC*%
X142245000Y-71120000D03*
%TD*%
D12*
%TO.P,R3,1*%
%TO.N,Net-(R1-Pad1)*%
X129540000Y-74930000D03*
D14*
%TO.P,R3,2*%
%TO.N,Net-(D3-Pad1)*%
X137160000Y-74930000D03*
%TD*%
D12*
%TO.P,R28,1*%
%TO.N,Net-(R10-Pad1)*%
X127000000Y-115570000D03*
D14*
%TO.P,R28,2*%
%TO.N,Net-(D28-Pad1)*%
X127000000Y-107950000D03*
%TD*%
D10*
%TO.P,D23,1,K*%
%TO.N,Net-(D23-Pad1)*%
X134625000Y-101600000D03*
D11*
%TO.P,D23,2,A*%
%TO.N,VCC*%
X132085000Y-101600000D03*
%TD*%
D12*
%TO.P,R32,1*%
%TO.N,Net-(R10-Pad1)*%
X160020000Y-115570000D03*
D14*
%TO.P,R32,2*%
%TO.N,Net-(D32-Pad1)*%
X160020000Y-107950000D03*
%TD*%
D10*
%TO.P,D32,1,K*%
%TO.N,Net-(D32-Pad1)*%
X165100000Y-111760000D03*
D11*
%TO.P,D32,2,A*%
%TO.N,VCC*%
X162560000Y-111760000D03*
%TD*%
D12*
%TO.P,R12,1*%
%TO.N,Net-(R10-Pad1)*%
X160020000Y-85090000D03*
D14*
%TO.P,R12,2*%
%TO.N,Net-(D12-Pad1)*%
X160020000Y-77470000D03*
%TD*%
D12*
%TO.P,R38,1*%
%TO.N,Net-(R10-Pad1)*%
X147320000Y-125730000D03*
D14*
%TO.P,R38,2*%
%TO.N,Net-(D38-Pad1)*%
X147320000Y-118110000D03*
%TD*%
D10*
%TO.P,D44,1,K*%
%TO.N,Net-(D44-Pad1)*%
X134620000Y-132080000D03*
D11*
%TO.P,D44,2,A*%
%TO.N,VCC*%
X132080000Y-132080000D03*
%TD*%
D12*
%TO.P,R18,1*%
%TO.N,Net-(R10-Pad1)*%
X147320000Y-95250000D03*
D14*
%TO.P,R18,2*%
%TO.N,Net-(D18-Pad1)*%
X147320000Y-87630000D03*
%TD*%
D10*
%TO.P,D7,1,K*%
%TO.N,Net-(D7-Pad1)*%
X114935000Y-81280000D03*
D11*
%TO.P,D7,2,A*%
%TO.N,VCC*%
X112395000Y-81280000D03*
%TD*%
D10*
%TO.P,D35,1,K*%
%TO.N,Net-(D35-Pad1)*%
X114300000Y-121920000D03*
D11*
%TO.P,D35,2,A*%
%TO.N,VCC*%
X111760000Y-121920000D03*
%TD*%
D12*
%TO.P,R47,1*%
%TO.N,Net-(R1-Pad1)*%
X170180000Y-128270000D03*
D14*
%TO.P,R47,2*%
%TO.N,Net-(D47-Pad1)*%
X177800000Y-128270000D03*
%TD*%
D10*
%TO.P,D37,1,K*%
%TO.N,Net-(D37-Pad1)*%
X134620000Y-121920000D03*
D11*
%TO.P,D37,2,A*%
%TO.N,VCC*%
X132080000Y-121920000D03*
%TD*%
D12*
%TO.P,R36,1*%
%TO.N,Net-(R1-Pad1)*%
X127000000Y-125730000D03*
D14*
%TO.P,R36,2*%
%TO.N,Net-(D36-Pad1)*%
X127000000Y-118110000D03*
%TD*%
D10*
%TO.P,D2,1,K*%
%TO.N,Net-(D2-Pad1)*%
X175260000Y-60960000D03*
D11*
%TO.P,D2,2,A*%
%TO.N,VCC*%
X172720000Y-60960000D03*
%TD*%
D13*
%TO.P,U1,1,~{Mr}*%
%TO.N,VCC*%
X160010000Y-72390000D03*
D14*
%TO.P,U1,2,Q0*%
%TO.N,Net-(U1-Pad2)*%
X160010000Y-69850000D03*
%TO.P,U1,3,~{Q0}*%
%TO.N,Net-(R11-Pad1)*%
X160010000Y-67310000D03*
%TO.P,U1,4,D0*%
%TO.N,Net-(U1-Pad14)*%
X160010000Y-64770000D03*
%TO.P,U1,5,D1*%
%TO.N,Net-(U1-Pad2)*%
X160010000Y-62230000D03*
%TO.P,U1,6,~{Q1}*%
%TO.N,Net-(R10-Pad1)*%
X160010000Y-59690000D03*
%TO.P,U1,7,Q1*%
%TO.N,Net-(U1-Pad12)*%
X160010000Y-57150000D03*
%TO.P,U1,8,GND*%
%TO.N,GND*%
X160010000Y-54610000D03*
%TO.P,U1,9,Cp*%
%TO.N,/CLOCK*%
X152390000Y-54610000D03*
%TO.P,U1,10,Q2*%
%TO.N,Net-(U1-Pad10)*%
X152390000Y-57150000D03*
%TO.P,U1,11,~{Q2}*%
%TO.N,Net-(R1-Pad1)*%
X152390000Y-59690000D03*
%TO.P,U1,12,D2*%
%TO.N,Net-(U1-Pad12)*%
X152390000Y-62230000D03*
%TO.P,U1,13,D3*%
%TO.N,Net-(U1-Pad10)*%
X152390000Y-64770000D03*
%TO.P,U1,14,~{Q3}*%
%TO.N,Net-(U1-Pad14)*%
X152390000Y-67310000D03*
%TO.P,U1,15,Q3*%
%TO.N,unconnected-(U1-Pad15)*%
X152390000Y-69850000D03*
%TO.P,U1,16,VCC*%
%TO.N,VCC*%
X152390000Y-72390000D03*
%TD*%
D12*
%TO.P,R10,1*%
%TO.N,Net-(R10-Pad1)*%
X147320000Y-85090000D03*
D14*
%TO.P,R10,2*%
%TO.N,Net-(D10-Pad1)*%
X147320000Y-77470000D03*
%TD*%
D10*
%TO.P,D28,1,K*%
%TO.N,Net-(D28-Pad1)*%
X124460000Y-111760000D03*
D11*
%TO.P,D28,2,A*%
%TO.N,VCC*%
X121920000Y-111760000D03*
%TD*%
D10*
%TO.P,D49,1,K*%
%TO.N,Net-(D49-Pad1)*%
X175265000Y-142240000D03*
D11*
%TO.P,D49,2,A*%
%TO.N,VCC*%
X172725000Y-142240000D03*
%TD*%
D10*
%TO.P,D13,1,K*%
%TO.N,Net-(D13-Pad1)*%
X175260000Y-81280000D03*
D11*
%TO.P,D13,2,A*%
%TO.N,VCC*%
X172720000Y-81280000D03*
%TD*%
D10*
%TO.P,D15,1,K*%
%TO.N,Net-(D15-Pad1)*%
X195585000Y-81280000D03*
D11*
%TO.P,D15,2,A*%
%TO.N,VCC*%
X193045000Y-81280000D03*
%TD*%
D10*
%TO.P,D31,1,K*%
%TO.N,Net-(D31-Pad1)*%
X154945000Y-111760000D03*
D11*
%TO.P,D31,2,A*%
%TO.N,VCC*%
X152405000Y-111760000D03*
%TD*%
D12*
%TO.P,R14,1*%
%TO.N,Net-(R1-Pad1)*%
X180340000Y-85090000D03*
D14*
%TO.P,R14,2*%
%TO.N,Net-(D14-Pad1)*%
X180340000Y-77470000D03*
%TD*%
D10*
%TO.P,D36,1,K*%
%TO.N,Net-(D36-Pad1)*%
X124460000Y-121920000D03*
D11*
%TO.P,D36,2,A*%
%TO.N,VCC*%
X121920000Y-121920000D03*
%TD*%
D12*
%TO.P,R17,1*%
%TO.N,Net-(R10-Pad1)*%
X137160000Y-95250000D03*
D14*
%TO.P,R17,2*%
%TO.N,Net-(D17-Pad1)*%
X137160000Y-87630000D03*
%TD*%
D10*
%TO.P,D48,1,K*%
%TO.N,Net-(D48-Pad1)*%
X134625000Y-142240000D03*
D11*
%TO.P,D48,2,A*%
%TO.N,VCC*%
X132085000Y-142240000D03*
%TD*%
D12*
%TO.P,R20,1*%
%TO.N,Net-(R10-Pad1)*%
X160020000Y-95250000D03*
D14*
%TO.P,R20,2*%
%TO.N,Net-(D20-Pad1)*%
X160020000Y-87630000D03*
%TD*%
D10*
%TO.P,D21,1,K*%
%TO.N,Net-(D21-Pad1)*%
X175265000Y-91440000D03*
D11*
%TO.P,D21,2,A*%
%TO.N,VCC*%
X172725000Y-91440000D03*
%TD*%
D10*
%TO.P,D34,1,K*%
%TO.N,Net-(D34-Pad1)*%
X185420000Y-111760000D03*
D11*
%TO.P,D34,2,A*%
%TO.N,VCC*%
X182880000Y-111760000D03*
%TD*%
D14*
%TO.P,R49,2*%
%TO.N,Net-(D49-Pad1)*%
X177800000Y-138430000D03*
D12*
%TO.P,R49,1*%
%TO.N,Net-(R1-Pad1)*%
X170180000Y-138430000D03*
%TD*%
%TO.P,R34,1*%
%TO.N,Net-(R10-Pad1)*%
X180340000Y-115570000D03*
D14*
%TO.P,R34,2*%
%TO.N,Net-(D34-Pad1)*%
X180340000Y-107950000D03*
%TD*%
D10*
%TO.P,D38,1,K*%
%TO.N,Net-(D38-Pad1)*%
X144780000Y-121920000D03*
D11*
%TO.P,D38,2,A*%
%TO.N,VCC*%
X142240000Y-121920000D03*
%TD*%
D12*
%TO.P,R22,1*%
%TO.N,Net-(R10-Pad1)*%
X180340000Y-95250000D03*
D14*
%TO.P,R22,2*%
%TO.N,Net-(D22-Pad1)*%
X180340000Y-87630000D03*
%TD*%
D11*
%TO.P,D8,2,A*%
%TO.N,VCC*%
X121930000Y-81280000D03*
D10*
%TO.P,D8,1,K*%
%TO.N,Net-(D8-Pad1)*%
X124470000Y-81280000D03*
%TD*%
D12*
%TO.P,R40,1*%
%TO.N,Net-(R10-Pad1)*%
X160020000Y-125730000D03*
D14*
%TO.P,R40,2*%
%TO.N,Net-(D40-Pad1)*%
X160020000Y-118110000D03*
%TD*%
D12*
%TO.P,R41,1*%
%TO.N,Net-(R1-Pad1)*%
X170180000Y-125730000D03*
D14*
%TO.P,R41,2*%
%TO.N,Net-(D41-Pad1)*%
X170180000Y-118110000D03*
%TD*%
D12*
%TO.P,R42,1*%
%TO.N,Net-(R1-Pad1)*%
X180340000Y-125730000D03*
D14*
%TO.P,R42,2*%
%TO.N,Net-(D42-Pad1)*%
X180340000Y-118110000D03*
%TD*%
D12*
%TO.P,R53,1*%
%TO.N,VCC*%
X137160000Y-67310000D03*
D14*
%TO.P,R53,2*%
%TO.N,Net-(C3-Pad1)*%
X144780000Y-67310000D03*
%TD*%
D12*
%TO.P,R44,1*%
%TO.N,Net-(R1-Pad1)*%
X129540000Y-128270000D03*
D14*
%TO.P,R44,2*%
%TO.N,Net-(D44-Pad1)*%
X137160000Y-128270000D03*
%TD*%
D10*
%TO.P,D33,1,K*%
%TO.N,Net-(D33-Pad1)*%
X175265000Y-111760000D03*
D11*
%TO.P,D33,2,A*%
%TO.N,VCC*%
X172725000Y-111760000D03*
%TD*%
D12*
%TO.P,R9,1*%
%TO.N,Net-(R1-Pad1)*%
X137160000Y-85090000D03*
D14*
%TO.P,R9,2*%
%TO.N,Net-(D9-Pad1)*%
X137160000Y-77470000D03*
%TD*%
D10*
%TO.P,D6,1,K*%
%TO.N,Net-(D6-Pad1)*%
X175260000Y-71120000D03*
D11*
%TO.P,D6,2,A*%
%TO.N,VCC*%
X172720000Y-71120000D03*
%TD*%
D12*
%TO.P,R21,1*%
%TO.N,Net-(R10-Pad1)*%
X170180000Y-95250000D03*
D14*
%TO.P,R21,2*%
%TO.N,Net-(D21-Pad1)*%
X170180000Y-87630000D03*
%TD*%
D12*
%TO.P,R48,1*%
%TO.N,Net-(R1-Pad1)*%
X129540000Y-138430000D03*
D14*
%TO.P,R48,2*%
%TO.N,Net-(D48-Pad1)*%
X137160000Y-138430000D03*
%TD*%
D11*
%TO.P,D22,2,A*%
%TO.N,VCC*%
X182885000Y-91440000D03*
D10*
%TO.P,D22,1,K*%
%TO.N,Net-(D22-Pad1)*%
X185425000Y-91440000D03*
%TD*%
%TO.P,D9,1,K*%
%TO.N,Net-(D9-Pad1)*%
X134620000Y-81280000D03*
D11*
%TO.P,D9,2,A*%
%TO.N,VCC*%
X132080000Y-81280000D03*
%TD*%
D10*
%TO.P,D46,1,K*%
%TO.N,Net-(D46-Pad1)*%
X165105000Y-132080000D03*
D11*
%TO.P,D46,2,A*%
%TO.N,VCC*%
X162565000Y-132080000D03*
%TD*%
D12*
%TO.P,R7,1*%
%TO.N,Net-(R1-Pad1)*%
X116840000Y-85090000D03*
D14*
%TO.P,R7,2*%
%TO.N,Net-(D7-Pad1)*%
X116840000Y-77470000D03*
%TD*%
D12*
%TO.P,C1,1*%
%TO.N,VCC*%
X152440000Y-74930000D03*
%TO.P,C1,2*%
%TO.N,GND*%
X157440000Y-74930000D03*
%TD*%
D19*
%TO.N,Net-(R1-Pad1)*%
X138430000Y-83820000D02*
X137160000Y-85090000D01*
X138430000Y-71120000D02*
X138430000Y-83820000D01*
X149369031Y-69070969D02*
X140479031Y-69070969D01*
X150430481Y-61649519D02*
X150430481Y-68009519D01*
X140479031Y-69070969D02*
X138430000Y-71120000D01*
X152390000Y-59690000D02*
X150430481Y-61649519D01*
X150430481Y-68009519D02*
X149369031Y-69070969D01*
%TO.N,Net-(R10-Pad1)*%
X151872435Y-66060489D02*
X153639511Y-66060489D01*
X151140489Y-66792435D02*
X151872435Y-66060489D01*
X149939511Y-69770489D02*
X151140489Y-68569511D01*
X153639511Y-66060489D02*
X160010000Y-59690000D01*
X139700000Y-71120000D02*
X141049511Y-69770489D01*
X151140489Y-68569511D02*
X151140489Y-66792435D01*
X139700000Y-74930000D02*
X139700000Y-71120000D01*
X141049511Y-69770489D02*
X149939511Y-69770489D01*
%TO.N,VCC*%
X130175000Y-83185000D02*
X132080000Y-81280000D01*
X121920000Y-83185000D02*
X130175000Y-83185000D01*
X121920000Y-81290000D02*
X121930000Y-81280000D01*
X121920000Y-83185000D02*
X121920000Y-81290000D01*
X121920000Y-91440000D02*
X121920000Y-83185000D01*
X177795000Y-83190000D02*
X177800000Y-83185000D01*
X177795000Y-93340000D02*
X177795000Y-83190000D01*
X144145000Y-83185000D02*
X152400000Y-83185000D01*
X142240000Y-81280000D02*
X144145000Y-83185000D01*
X135255000Y-69215000D02*
X132080000Y-69215000D01*
X137160000Y-67310000D02*
X135255000Y-69215000D01*
X123820000Y-93340000D02*
X121920000Y-91440000D01*
D20*
X132080000Y-93335000D02*
X132085000Y-93340000D01*
X132080000Y-91440000D02*
X132080000Y-93335000D01*
D19*
X114300000Y-83185000D02*
X121920000Y-83185000D01*
X132080000Y-71120000D02*
X132080000Y-81280000D01*
X177790000Y-93345000D02*
X177795000Y-93340000D01*
X172720000Y-93345000D02*
X177790000Y-93345000D01*
X177800000Y-93345000D02*
X177795000Y-93340000D01*
X180980000Y-93345000D02*
X177800000Y-93345000D01*
X182245000Y-83185000D02*
X177800000Y-83185000D01*
X172720000Y-83185000D02*
X177800000Y-83185000D01*
D20*
X177800000Y-79375000D02*
X177800000Y-83185000D01*
X172720000Y-74295000D02*
X177800000Y-79375000D01*
X172720000Y-71120000D02*
X172720000Y-74295000D01*
D19*
X167640000Y-83185000D02*
X167640000Y-78735000D01*
X167640000Y-78735000D02*
X161295000Y-72390000D01*
X167640000Y-83185000D02*
X172720000Y-83185000D01*
X162560000Y-83185000D02*
X167640000Y-83185000D01*
X167640000Y-103505000D02*
X167640000Y-93345000D01*
X167640000Y-93345000D02*
X162560000Y-93345000D01*
X172720000Y-93345000D02*
X167640000Y-93345000D01*
X167640000Y-113665000D02*
X167640000Y-103505000D01*
X167640000Y-103505000D02*
X172720000Y-103505000D01*
X162560000Y-103505000D02*
X167640000Y-103505000D01*
X142240000Y-101600000D02*
X142240000Y-93345000D01*
X142240000Y-111760000D02*
X142240000Y-103505000D01*
X162560000Y-132075000D02*
X162565000Y-132080000D01*
X162560000Y-123825000D02*
X162560000Y-132075000D01*
%TO.N,Net-(D46-Pad1)*%
X167640000Y-129545000D02*
X165105000Y-132080000D01*
X167640000Y-128270000D02*
X167640000Y-129545000D01*
D20*
%TO.N,VCC*%
X165164888Y-62929888D02*
X165164888Y-66040000D01*
X165095000Y-62860000D02*
X165164888Y-62929888D01*
X165100000Y-62865000D02*
X165095000Y-62860000D01*
X172720000Y-62865000D02*
X165100000Y-62865000D01*
X172720000Y-62865000D02*
X172720000Y-71120000D01*
X165095000Y-60890000D02*
X165095000Y-62860000D01*
X172720000Y-60960000D02*
X172720000Y-62865000D01*
X152440000Y-81240000D02*
X152400000Y-81280000D01*
X152440000Y-74930000D02*
X152440000Y-81240000D01*
D19*
X177800000Y-93345000D02*
X177800000Y-103505000D01*
X172720000Y-103505000D02*
X177800000Y-103505000D01*
X177800000Y-103505000D02*
X177800000Y-113665000D01*
X177800000Y-113665000D02*
X182880000Y-113665000D01*
X172730000Y-113665000D02*
X172725000Y-113660000D01*
X177800000Y-113665000D02*
X177800000Y-123825000D01*
X177800000Y-113665000D02*
X172730000Y-113665000D01*
X177800000Y-123825000D02*
X182880000Y-123825000D01*
X172720000Y-123825000D02*
X177800000Y-123825000D01*
X121920000Y-123825000D02*
X132080000Y-123825000D01*
X121920000Y-121920000D02*
X121920000Y-123825000D01*
X113665000Y-123825000D02*
X121920000Y-123825000D01*
X132080000Y-123825000D02*
X132080000Y-121920000D01*
X132080000Y-123825000D02*
X142240000Y-123825000D01*
X132080000Y-132080000D02*
X132080000Y-123825000D01*
X142240000Y-123825000D02*
X142240000Y-132080000D01*
X142240000Y-123825000D02*
X142240000Y-121920000D01*
X142240000Y-123825000D02*
X152400000Y-123825000D01*
X152400000Y-123825000D02*
X152400000Y-121920000D01*
X152400000Y-123825000D02*
X162560000Y-123825000D01*
X162560000Y-121920000D02*
X162560000Y-123825000D01*
X162560000Y-123825000D02*
X167640000Y-123825000D01*
X167640000Y-123825000D02*
X167640000Y-113665000D01*
X167640000Y-123825000D02*
X172720000Y-123825000D01*
X172725000Y-123830000D02*
X172720000Y-123825000D01*
X172725000Y-132080000D02*
X172725000Y-123830000D01*
X172725000Y-123820000D02*
X172720000Y-123825000D01*
X172725000Y-121920000D02*
X172725000Y-123820000D01*
X182880000Y-121920000D02*
X182880000Y-123825000D01*
X182880000Y-123825000D02*
X187960000Y-123825000D01*
X187960000Y-118745000D02*
X187960000Y-123825000D01*
X187960000Y-123825000D02*
X191135000Y-123825000D01*
X191135000Y-123825000D02*
X193040000Y-121920000D01*
X111760000Y-121920000D02*
X113665000Y-123825000D01*
X172720000Y-113665000D02*
X167640000Y-113665000D01*
X167640000Y-113665000D02*
X162560000Y-113665000D01*
X172720000Y-113665000D02*
X172725000Y-113660000D01*
X172725000Y-113660000D02*
X172725000Y-111760000D01*
X152400000Y-113665000D02*
X162560000Y-113665000D01*
X182880000Y-113665000D02*
X187960000Y-118745000D01*
X182880000Y-111760000D02*
X182880000Y-113665000D01*
X162565000Y-132080000D02*
X164465000Y-133980000D01*
X164465000Y-133980000D02*
X172725000Y-133980000D01*
X142240000Y-121920000D02*
X142240000Y-113665000D01*
X121920000Y-121920000D02*
X121920000Y-113665000D01*
X121920000Y-111760000D02*
X121920000Y-113665000D01*
X121920000Y-113665000D02*
X132080000Y-113665000D01*
X172720000Y-103505000D02*
X172720000Y-101600000D01*
X142240000Y-103505000D02*
X132080000Y-103505000D01*
X132080000Y-113665000D02*
X132080000Y-121920000D01*
X132085000Y-111755000D02*
X132080000Y-111760000D01*
X132085000Y-101600000D02*
X132085000Y-111755000D01*
X132085000Y-93340000D02*
X132085000Y-101600000D01*
X152405000Y-93350000D02*
X152400000Y-93345000D01*
X152405000Y-101600000D02*
X152405000Y-93350000D01*
X152405000Y-111760000D02*
X152405000Y-103500000D01*
X152400000Y-113665000D02*
X152405000Y-113660000D01*
X152400000Y-121920000D02*
X152400000Y-113665000D01*
X142240000Y-113665000D02*
X132080000Y-113665000D01*
X142235000Y-93340000D02*
X142240000Y-93345000D01*
X132085000Y-93340000D02*
X142235000Y-93340000D01*
%TO.N,Net-(R10-Pad1)*%
X147320000Y-85090000D02*
X160020000Y-85090000D01*
%TO.N,VCC*%
X132080000Y-113665000D02*
X132080000Y-111760000D01*
D20*
X165164888Y-67403862D02*
X165164888Y-66040000D01*
X162565000Y-70003750D02*
X165164888Y-67403862D01*
X162565000Y-71120000D02*
X162565000Y-70003750D01*
X161295000Y-72390000D02*
X162565000Y-71120000D01*
X160010000Y-72390000D02*
X161295000Y-72390000D01*
X152390000Y-72390000D02*
X160010000Y-72390000D01*
X152440000Y-72440000D02*
X152390000Y-72390000D01*
X152440000Y-74930000D02*
X152440000Y-72440000D01*
D19*
%TO.N,Net-(U1-Pad2)*%
X161925000Y-64135000D02*
X161925000Y-67945000D01*
X161925000Y-67945000D02*
X160020000Y-69850000D01*
X160020000Y-62230000D02*
X161925000Y-64135000D01*
%TO.N,VCC*%
X172725000Y-93340000D02*
X172720000Y-93345000D01*
X142240000Y-113665000D02*
X152400000Y-113665000D01*
X162560000Y-111760000D02*
X162560000Y-113665000D01*
X132080000Y-60960000D02*
X135890000Y-57150000D01*
X172720000Y-83185000D02*
X172720000Y-81280000D01*
X132085000Y-133990000D02*
X132085000Y-132085000D01*
X142240000Y-93345000D02*
X142240000Y-91440000D01*
X172725000Y-142240000D02*
X172725000Y-133980000D01*
X142240000Y-102870000D02*
X142240000Y-101600000D01*
X132085000Y-132085000D02*
X132080000Y-132080000D01*
X152405000Y-103500000D02*
X152400000Y-103505000D01*
X172725000Y-91440000D02*
X172725000Y-93340000D01*
X161290000Y-72390000D02*
X160020000Y-72390000D01*
X152400000Y-91440000D02*
X152400000Y-93345000D01*
X135890000Y-57150000D02*
X137160000Y-57150000D01*
X172725000Y-133980000D02*
X172725000Y-132080000D01*
X162560000Y-83185000D02*
X162565000Y-83180000D01*
X152400000Y-93345000D02*
X142240000Y-93345000D01*
X162565000Y-83180000D02*
X162565000Y-81280000D01*
X152400000Y-103505000D02*
X162560000Y-103505000D01*
X142240000Y-113665000D02*
X142240000Y-111760000D01*
X140330000Y-133990000D02*
X142240000Y-132080000D01*
X138430000Y-66040000D02*
X137160000Y-67310000D01*
X152400000Y-72390000D02*
X152400000Y-74930000D01*
X137160000Y-57150000D02*
X137160000Y-62230000D01*
X137160000Y-62230000D02*
X138430000Y-63500000D01*
X132085000Y-93340000D02*
X123820000Y-93340000D01*
X160020000Y-72390000D02*
X152400000Y-72390000D01*
X132080000Y-69215000D02*
X132080000Y-60965000D01*
X132080000Y-60965000D02*
X132085000Y-60960000D01*
X191140000Y-83185000D02*
X193045000Y-81280000D01*
X182245000Y-83185000D02*
X191140000Y-83185000D01*
X132085000Y-133990000D02*
X140330000Y-133990000D01*
X162565000Y-103500000D02*
X162560000Y-103505000D01*
X152400000Y-83185000D02*
X162560000Y-83185000D01*
X152405000Y-111760000D02*
X152405000Y-113660000D01*
X138430000Y-63500000D02*
X138430000Y-66040000D01*
X162560000Y-93345000D02*
X152400000Y-93345000D01*
X162560000Y-71120000D02*
X161290000Y-72390000D01*
X114300000Y-83185000D02*
X112395000Y-81280000D01*
X137160000Y-54610000D02*
X137160000Y-57150000D01*
X162565000Y-101600000D02*
X162565000Y-103500000D01*
X142240000Y-103505000D02*
X152400000Y-103505000D01*
X182885000Y-91440000D02*
X180980000Y-93345000D01*
X142240000Y-103505000D02*
X142240000Y-102870000D01*
X152405000Y-101600000D02*
X152405000Y-103500000D01*
X182245000Y-83185000D02*
X182245000Y-81280000D01*
X152400000Y-83185000D02*
X152400000Y-81280000D01*
X132085000Y-142240000D02*
X132085000Y-133990000D01*
X132080000Y-71120000D02*
X132080000Y-69215000D01*
X162560000Y-91440000D02*
X162560000Y-93345000D01*
%TO.N,Net-(C2-Pad1)*%
X142240000Y-59690000D02*
X144780000Y-62230000D01*
X144780000Y-62230000D02*
X148590000Y-62230000D01*
X139700000Y-59690000D02*
X142240000Y-59690000D01*
%TO.N,Net-(C2-Pad2)*%
X144780000Y-57150000D02*
X144780000Y-59690000D01*
X144780000Y-57150000D02*
X148590000Y-57150000D01*
%TO.N,Net-(C3-Pad1)*%
X144780000Y-64770000D02*
X148590000Y-64770000D01*
X144780000Y-67310000D02*
X144780000Y-64770000D01*
%TO.N,/CLOCK*%
X139700000Y-64770000D02*
X139700000Y-62230000D01*
X139700000Y-62230000D02*
X138430000Y-60960000D01*
X142240000Y-54610000D02*
X144780000Y-54610000D01*
X138430000Y-60960000D02*
X138430000Y-58420000D01*
X138430000Y-58420000D02*
X142240000Y-54610000D01*
X148590000Y-54610000D02*
X152400000Y-54610000D01*
X144780000Y-54610000D02*
X148590000Y-54610000D01*
%TO.N,Net-(D1-Pad1)*%
X134620000Y-62230000D02*
X137160000Y-64770000D01*
X134620000Y-60960000D02*
X134620000Y-62230000D01*
%TO.N,Net-(D2-Pad1)*%
X177800000Y-64770000D02*
X177800000Y-63500000D01*
X177800000Y-63500000D02*
X175260000Y-60960000D01*
%TO.N,Net-(D3-Pad1)*%
X137160000Y-74930000D02*
X137160000Y-73660000D01*
X137160000Y-73660000D02*
X134620000Y-71120000D01*
%TO.N,Net-(D4-Pad1)*%
X147320000Y-74930000D02*
X147320000Y-73660000D01*
X147320000Y-73660000D02*
X144780000Y-71120000D01*
%TO.N,Net-(D5-Pad1)*%
X167640000Y-73660000D02*
X165100000Y-71120000D01*
X167640000Y-74930000D02*
X167640000Y-73660000D01*
%TO.N,Net-(D6-Pad1)*%
X177800000Y-73660000D02*
X175260000Y-71120000D01*
X177800000Y-74930000D02*
X177800000Y-73660000D01*
%TO.N,Net-(D7-Pad1)*%
X116840000Y-77470000D02*
X116840000Y-78740000D01*
X116840000Y-78740000D02*
X114300000Y-81280000D01*
%TO.N,Net-(D9-Pad1)*%
X137160000Y-77470000D02*
X137160000Y-78740000D01*
X137160000Y-78740000D02*
X134620000Y-81280000D01*
%TO.N,Net-(D10-Pad1)*%
X147320000Y-77470000D02*
X147320000Y-78740000D01*
X147320000Y-78740000D02*
X144780000Y-81280000D01*
%TO.N,Net-(D11-Pad1)*%
X157480000Y-77470000D02*
X157480000Y-78740000D01*
X157480000Y-78740000D02*
X154940000Y-81280000D01*
%TO.N,Net-(D12-Pad1)*%
X161290000Y-77470000D02*
X160020000Y-77470000D01*
X165100000Y-81280000D02*
X161290000Y-77470000D01*
%TO.N,Net-(D13-Pad1)*%
X175260000Y-81280000D02*
X171450000Y-77470000D01*
X171450000Y-77470000D02*
X170180000Y-77470000D01*
%TO.N,Net-(D14-Pad1)*%
X185420000Y-81280000D02*
X181610000Y-77470000D01*
X181610000Y-77470000D02*
X180340000Y-77470000D01*
%TO.N,Net-(D15-Pad1)*%
X195580000Y-81280000D02*
X191770000Y-77470000D01*
X191770000Y-77470000D02*
X190500000Y-77470000D01*
%TO.N,Net-(D16-Pad1)*%
X127000000Y-87630000D02*
X127000000Y-88900000D01*
X127000000Y-88900000D02*
X124460000Y-91440000D01*
%TO.N,Net-(D17-Pad1)*%
X137160000Y-88900000D02*
X134620000Y-91440000D01*
X137160000Y-87630000D02*
X137160000Y-88900000D01*
%TO.N,Net-(D18-Pad1)*%
X147320000Y-88900000D02*
X144780000Y-91440000D01*
X147320000Y-87630000D02*
X147320000Y-88900000D01*
%TO.N,Net-(D19-Pad1)*%
X157480000Y-87630000D02*
X157480000Y-88900000D01*
X157480000Y-88900000D02*
X154940000Y-91440000D01*
%TO.N,Net-(D20-Pad1)*%
X160020000Y-87630000D02*
X161290000Y-87630000D01*
X161290000Y-87630000D02*
X165100000Y-91440000D01*
%TO.N,Net-(D21-Pad1)*%
X171450000Y-87630000D02*
X175260000Y-91440000D01*
X170180000Y-87630000D02*
X171450000Y-87630000D01*
%TO.N,Net-(D22-Pad1)*%
X181610000Y-87630000D02*
X185420000Y-91440000D01*
X180340000Y-87630000D02*
X181610000Y-87630000D01*
%TO.N,Net-(D23-Pad1)*%
X137160000Y-99060000D02*
X134620000Y-101600000D01*
X137160000Y-97790000D02*
X137160000Y-99060000D01*
%TO.N,Net-(D24-Pad1)*%
X147320000Y-99060000D02*
X144780000Y-101600000D01*
X147320000Y-97790000D02*
X147320000Y-99060000D01*
%TO.N,Net-(D25-Pad1)*%
X157480000Y-99060000D02*
X154940000Y-101600000D01*
X157480000Y-97790000D02*
X157480000Y-99060000D01*
%TO.N,Net-(D26-Pad1)*%
X160020000Y-97790000D02*
X161290000Y-97790000D01*
X161290000Y-97790000D02*
X165100000Y-101600000D01*
%TO.N,Net-(D27-Pad1)*%
X170180000Y-97790000D02*
X171450000Y-97790000D01*
X171450000Y-97790000D02*
X175260000Y-101600000D01*
%TO.N,Net-(D28-Pad1)*%
X127000000Y-107950000D02*
X127000000Y-109220000D01*
X127000000Y-109220000D02*
X124460000Y-111760000D01*
%TO.N,Net-(D29-Pad1)*%
X137160000Y-107950000D02*
X137160000Y-109220000D01*
X137160000Y-109220000D02*
X134620000Y-111760000D01*
%TO.N,Net-(D30-Pad1)*%
X147320000Y-107950000D02*
X147320000Y-109220000D01*
X147320000Y-109220000D02*
X144780000Y-111760000D01*
%TO.N,Net-(D31-Pad1)*%
X157480000Y-107950000D02*
X157480000Y-109220000D01*
X157480000Y-109220000D02*
X154940000Y-111760000D01*
%TO.N,Net-(D32-Pad1)*%
X160020000Y-107950000D02*
X161290000Y-107950000D01*
X161290000Y-107950000D02*
X165100000Y-111760000D01*
%TO.N,Net-(D33-Pad1)*%
X171450000Y-107950000D02*
X175260000Y-111760000D01*
X170180000Y-107950000D02*
X171450000Y-107950000D01*
%TO.N,Net-(D34-Pad1)*%
X180340000Y-107950000D02*
X181610000Y-107950000D01*
X181610000Y-107950000D02*
X185420000Y-111760000D01*
%TO.N,Net-(D35-Pad1)*%
X116840000Y-119380000D02*
X114300000Y-121920000D01*
X116840000Y-118110000D02*
X116840000Y-119380000D01*
%TO.N,Net-(D36-Pad1)*%
X127000000Y-118110000D02*
X127000000Y-119380000D01*
X127000000Y-119380000D02*
X124460000Y-121920000D01*
%TO.N,Net-(D37-Pad1)*%
X137160000Y-119380000D02*
X134620000Y-121920000D01*
X137160000Y-118110000D02*
X137160000Y-119380000D01*
%TO.N,Net-(D38-Pad1)*%
X147320000Y-118110000D02*
X147320000Y-119380000D01*
X147320000Y-119380000D02*
X144780000Y-121920000D01*
%TO.N,Net-(D39-Pad1)*%
X157480000Y-118110000D02*
X157480000Y-119380000D01*
X157480000Y-119380000D02*
X154940000Y-121920000D01*
%TO.N,Net-(D40-Pad1)*%
X161290000Y-118110000D02*
X165100000Y-121920000D01*
X160020000Y-118110000D02*
X161290000Y-118110000D01*
%TO.N,Net-(D41-Pad1)*%
X170180000Y-118110000D02*
X171450000Y-118110000D01*
X171450000Y-118110000D02*
X175260000Y-121920000D01*
%TO.N,Net-(D42-Pad1)*%
X180340000Y-118110000D02*
X181610000Y-118110000D01*
X181610000Y-118110000D02*
X185420000Y-121920000D01*
%TO.N,Net-(D43-Pad1)*%
X191770000Y-118110000D02*
X195580000Y-121920000D01*
X190500000Y-118110000D02*
X191770000Y-118110000D01*
%TO.N,Net-(D44-Pad1)*%
X137160000Y-128270000D02*
X137160000Y-129540000D01*
X137160000Y-129540000D02*
X134620000Y-132080000D01*
%TO.N,Net-(D45-Pad1)*%
X147320000Y-128270000D02*
X147320000Y-129540000D01*
X147320000Y-129540000D02*
X144780000Y-132080000D01*
%TO.N,Net-(D47-Pad1)*%
X177800000Y-128270000D02*
X177800000Y-129540000D01*
X177800000Y-129540000D02*
X175260000Y-132080000D01*
%TO.N,Net-(D48-Pad1)*%
X137160000Y-139700000D02*
X134620000Y-142240000D01*
X137160000Y-138430000D02*
X137160000Y-139700000D01*
%TO.N,Net-(D49-Pad1)*%
X177800000Y-138430000D02*
X177800000Y-139700000D01*
X177800000Y-139700000D02*
X175260000Y-142240000D01*
%TO.N,Net-(R11-Pad1)*%
X149860000Y-72390000D02*
X151130000Y-71120000D01*
X153670000Y-71120000D02*
X157480000Y-67310000D01*
X149860000Y-77470000D02*
X149860000Y-72390000D01*
X151130000Y-71120000D02*
X153670000Y-71120000D01*
X157480000Y-67310000D02*
X160020000Y-67310000D01*
%TO.N,Net-(R1-Pad1)*%
X168910000Y-86360000D02*
X170180000Y-85090000D01*
X137160000Y-85090000D02*
X138430000Y-86360000D01*
X138430000Y-86360000D02*
X168910000Y-86360000D01*
%TO.N,Net-(U1-Pad14)*%
X157480000Y-64770000D02*
X160020000Y-64770000D01*
X152400000Y-67310000D02*
X154940000Y-67310000D01*
X154940000Y-67310000D02*
X157480000Y-64770000D01*
%TO.N,Net-(U1-Pad12)*%
X152400000Y-62230000D02*
X153670000Y-62230000D01*
X158750000Y-57150000D02*
X160020000Y-57150000D01*
X153670000Y-62230000D02*
X158750000Y-57150000D01*
%TO.N,Net-(D8-Pad1)*%
X127000000Y-77470000D02*
X127000000Y-78740000D01*
X127000000Y-78740000D02*
X124460000Y-81280000D01*
%TD*%
M02*
