%TF.GenerationSoftware,KiCad,Pcbnew,(6.0.2)*%
%TF.CreationDate,2023-11-30T13:56:03-08:00*%
%TF.ProjectId,star,73746172-2e6b-4696-9361-645f70636258,rev?*%
%TF.SameCoordinates,Original*%
%TF.FileFunction,Profile,NP*%
%FSLAX46Y46*%
G04 Gerber Fmt 4.6, Leading zero omitted, Abs format (unit mm)*
G04 Created by KiCad (PCBNEW (6.0.2)) date 2023-11-30 13:56:03*
%MOMM*%
%LPD*%
G01*
G04 APERTURE LIST*
%TA.AperFunction,Profile*%
%ADD10C,0.100000*%
%TD*%
G04 APERTURE END LIST*
D10*
X128270000Y-74930000D02*
X128270000Y-57150000D01*
X173990000Y-55880000D02*
X177800000Y-55880000D01*
X198120000Y-127000000D02*
X180340000Y-127000000D01*
X179070000Y-57150000D02*
G75*
G03*
X177800000Y-55880000I-1269999J1D01*
G01*
X133350000Y-55880000D02*
X142240000Y-46990000D01*
X179070000Y-101600000D02*
X199390000Y-121920000D01*
X179070000Y-57150000D02*
X179070000Y-74930000D01*
X198120000Y-127000000D02*
G75*
G03*
X199390000Y-125730000I1J1269999D01*
G01*
X153670000Y-127000000D02*
X133350000Y-148590000D01*
X165100000Y-46990000D02*
X173990000Y-55880000D01*
X109220000Y-76200000D02*
X127000000Y-76200000D01*
X199390000Y-77470000D02*
X199390000Y-81280000D01*
X128270000Y-147320000D02*
G75*
G03*
X129540000Y-148590000I1269999J-1D01*
G01*
X180340000Y-127000000D02*
G75*
G03*
X179070000Y-128270000I-1J-1269999D01*
G01*
X177800000Y-147320000D02*
X173990000Y-147320000D01*
X127000000Y-76200000D02*
G75*
G03*
X128270000Y-74930000I1J1269999D01*
G01*
X179070000Y-74930000D02*
G75*
G03*
X180340000Y-76200000I1269999J-1D01*
G01*
X127000000Y-127000000D02*
X109220000Y-127000000D01*
X199390000Y-77470000D02*
G75*
G03*
X198120000Y-76200000I-1269999J1D01*
G01*
X142240000Y-46990000D02*
X165100000Y-46990000D01*
X128270000Y-128270000D02*
G75*
G03*
X127000000Y-127000000I-1269999J1D01*
G01*
X199390000Y-121920000D02*
X199390000Y-125730000D01*
X129540000Y-55880000D02*
G75*
G03*
X128270000Y-57150000I-1J-1269999D01*
G01*
X177800000Y-147320000D02*
G75*
G03*
X179070000Y-146050000I1J1269999D01*
G01*
X107950000Y-81280000D02*
X107950000Y-77470000D01*
X109220000Y-76200000D02*
G75*
G03*
X107950000Y-77470000I-1J-1269999D01*
G01*
X179070000Y-128270000D02*
X179070000Y-146050000D01*
X173990000Y-147320000D02*
X163830000Y-137160000D01*
X128270000Y-101600000D02*
X107950000Y-81280000D01*
X163830000Y-137160000D02*
X153670000Y-127000000D01*
X133350000Y-148590000D02*
X129540000Y-148590000D01*
X199390000Y-81280000D02*
X179070000Y-101600000D01*
X107950000Y-121920000D02*
X128270000Y-101600000D01*
X128270000Y-147320000D02*
X128270000Y-128270000D01*
X107950000Y-125730000D02*
X107950000Y-121920000D01*
X129540000Y-55880000D02*
X133350000Y-55880000D01*
X107950000Y-125730000D02*
G75*
G03*
X109220000Y-127000000I1269999J-1D01*
G01*
X180340000Y-76200000D02*
X198120000Y-76200000D01*
M02*
