M48
; DRILL file {KiCad (6.0.2)} date Thu Nov 30 13:56:07 2023
; FORMAT={-:-/ absolute / inch / decimal}
; #@! TF.CreationDate,2023-11-30T13:56:07-08:00
; #@! TF.GenerationSoftware,Kicad,Pcbnew,(6.0.2)
; #@! TF.FileFunction,Plated,1,2,PTH
FMAT,2
INCH
; #@! TA.AperFunction,Plated,PTH,ComponentDrill
T1C0.0315
; #@! TA.AperFunction,Plated,PTH,ComponentDrill
T2C0.0354
; #@! TA.AperFunction,Plated,PTH,ComponentDrill
T3C0.0394
%
G90
G05
T1
X4.6Y-3.05
X4.6Y-3.35
X4.6Y-4.65
X4.6Y-4.95
X5.0Y-3.05
X5.0Y-3.35
X5.0Y-3.45
X5.0Y-3.75
X5.0Y-4.25
X5.0Y-4.55
X5.0Y-4.65
X5.0Y-4.95
X5.1Y-2.55
X5.1Y-2.95
X5.1Y-5.05
X5.1Y-5.45
X5.4Y-2.15
X5.4Y-2.25
X5.4Y-2.45
X5.4Y-2.55
X5.4Y-2.65
X5.4Y-2.95
X5.4Y-3.05
X5.4Y-3.35
X5.4Y-3.45
X5.4Y-3.75
X5.4Y-3.85
X5.4Y-4.15
X5.4Y-4.25
X5.4Y-4.55
X5.4Y-4.65
X5.4Y-4.95
X5.4Y-5.05
X5.4Y-5.45
X5.5Y-2.95
X5.5Y-5.05
X5.5016Y-2.35
X5.5016Y-2.55
X5.6984Y-2.35
X5.6984Y-2.55
X5.7Y-2.15
X5.7Y-2.25
X5.7Y-2.45
X5.7Y-2.65
X5.8Y-2.95
X5.8Y-3.05
X5.8Y-3.35
X5.8Y-3.45
X5.8Y-3.75
X5.8Y-3.85
X5.8Y-4.15
X5.8Y-4.25
X5.8Y-4.55
X5.8Y-4.65
X5.8Y-4.95
X5.8Y-5.05
X5.85Y-2.15
X5.85Y-2.25
X5.85Y-2.35
X5.85Y-2.45
X5.85Y-2.55
X5.85Y-2.65
X5.9Y-3.05
X5.9Y-3.45
X5.9Y-3.85
X5.9Y-4.25
X5.9Y-4.65
X5.9996Y-2.15
X5.9996Y-2.25
X5.9996Y-2.35
X5.9996Y-2.45
X5.9996Y-2.55
X5.9996Y-2.65
X5.9996Y-2.75
X5.9996Y-2.85
X6.0016Y-2.95
X6.1984Y-2.95
X6.2Y-3.05
X6.2Y-3.45
X6.2Y-3.85
X6.2Y-4.25
X6.2Y-4.65
X6.2996Y-2.15
X6.2996Y-2.25
X6.2996Y-2.35
X6.2996Y-2.45
X6.2996Y-2.55
X6.2996Y-2.65
X6.2996Y-2.75
X6.2996Y-2.85
X6.3Y-2.95
X6.3Y-3.05
X6.3Y-3.35
X6.3Y-3.45
X6.3Y-3.75
X6.3Y-3.85
X6.3Y-4.15
X6.3Y-4.25
X6.3Y-4.55
X6.3Y-4.65
X6.3Y-4.95
X6.3Y-5.05
X6.5026Y-2.6
X6.6Y-2.95
X6.6Y-5.05
X6.601Y-2.6
X6.7Y-2.55
X6.7Y-2.95
X6.7Y-3.05
X6.7Y-3.35
X6.7Y-3.45
X6.7Y-3.75
X6.7Y-3.85
X6.7Y-4.15
X6.7Y-4.25
X6.7Y-4.55
X6.7Y-4.65
X6.7Y-4.95
X6.7Y-5.05
X6.7Y-5.45
X7.0Y-2.55
X7.0Y-2.95
X7.0Y-5.05
X7.0Y-5.45
X7.1Y-3.05
X7.1Y-3.35
X7.1Y-3.45
X7.1Y-3.75
X7.1Y-4.25
X7.1Y-4.55
X7.1Y-4.65
X7.1Y-4.95
X7.5Y-3.05
X7.5Y-3.35
X7.5Y-4.65
X7.5Y-4.95
T2
X4.4Y-4.8
X4.425Y-3.2
X4.5Y-4.8
X4.525Y-3.2
X4.8Y-3.6
X4.8Y-4.4
X4.8Y-4.8
X4.8004Y-3.2
X4.9Y-3.6
X4.9Y-4.4
X4.9Y-4.8
X4.9004Y-3.2
X5.2Y-2.8
X5.2Y-3.2
X5.2Y-3.6
X5.2Y-4.4
X5.2Y-4.8
X5.2Y-5.2
X5.2002Y-2.4
X5.2002Y-4.0
X5.2002Y-5.6
X5.3Y-2.8
X5.3Y-3.2
X5.3Y-3.6
X5.3Y-4.4
X5.3Y-4.8
X5.3Y-5.2
X5.3002Y-2.4
X5.3002Y-4.0
X5.3002Y-5.6
X5.6Y-3.2
X5.6Y-3.6
X5.6Y-4.0
X5.6Y-4.4
X5.6Y-4.8
X5.6Y-5.2
X5.6002Y-2.8
X5.7Y-3.2
X5.7Y-3.6
X5.7Y-4.0
X5.7Y-4.4
X5.7Y-4.8
X5.7Y-5.2
X5.7002Y-2.8
X6.0Y-3.2
X6.0Y-3.6
X6.0Y-4.8
X6.0002Y-4.0
X6.0002Y-4.4
X6.1Y-3.2
X6.1Y-3.6
X6.1Y-4.8
X6.1002Y-4.0
X6.1002Y-4.4
X6.4Y-3.6
X6.4Y-4.4
X6.4Y-4.8
X6.4002Y-2.8
X6.4002Y-3.2
X6.4002Y-4.0
X6.4002Y-5.2
X6.5Y-3.6
X6.5Y-4.4
X6.5Y-4.8
X6.5002Y-2.8
X6.5002Y-3.2
X6.5002Y-4.0
X6.5002Y-5.2
X6.8Y-2.4
X6.8Y-2.8
X6.8Y-3.2
X6.8Y-4.0
X6.8002Y-3.6
X6.8002Y-4.4
X6.8002Y-4.8
X6.8002Y-5.2
X6.8002Y-5.6
X6.9Y-2.4
X6.9Y-2.8
X6.9Y-3.2
X6.9Y-4.0
X6.9002Y-3.6
X6.9002Y-4.4
X6.9002Y-4.8
X6.9002Y-5.2
X6.9002Y-5.6
X7.175Y-3.2
X7.2Y-4.4
X7.2Y-4.8
X7.2002Y-3.6
X7.275Y-3.2
X7.3Y-4.4
X7.3Y-4.8
X7.3002Y-3.6
X7.6Y-4.8
X7.6002Y-3.2
X7.7Y-4.8
X7.7002Y-3.2
T3
X6.4998Y-2.3972
X6.5998Y-2.3972
T0
M30
