%TF.GenerationSoftware,KiCad,Pcbnew,(6.0.2)*%
%TF.CreationDate,2023-11-30T13:56:03-08:00*%
%TF.ProjectId,star,73746172-2e6b-4696-9361-645f70636258,rev?*%
%TF.SameCoordinates,Original*%
%TF.FileFunction,Soldermask,Top*%
%TF.FilePolarity,Negative*%
%FSLAX46Y46*%
G04 Gerber Fmt 4.6, Leading zero omitted, Abs format (unit mm)*
G04 Created by KiCad (PCBNEW (6.0.2)) date 2023-11-30 13:56:03*
%MOMM*%
%LPD*%
G01*
G04 APERTURE LIST*
%ADD10R,1.800000X1.800000*%
%ADD11C,1.800000*%
%ADD12C,1.600000*%
%ADD13R,1.600000X1.600000*%
%ADD14O,1.600000X1.600000*%
%ADD15C,3.200000*%
%ADD16R,1.500000X1.500000*%
%ADD17C,1.500000*%
%ADD18R,1.700000X1.700000*%
%ADD19O,1.700000X1.700000*%
G04 APERTURE END LIST*
D10*
%TO.C,D40*%
X165100000Y-121920000D03*
D11*
X162560000Y-121920000D03*
%TD*%
D10*
%TO.C,D5*%
X165105000Y-71120000D03*
D11*
X162565000Y-71120000D03*
%TD*%
D12*
%TO.C,C4*%
X167664888Y-66040000D03*
D13*
X165164888Y-66040000D03*
%TD*%
D12*
%TO.C,R46*%
X160020000Y-128270000D03*
D14*
X167640000Y-128270000D03*
%TD*%
D10*
%TO.C,D16*%
X124460000Y-91440000D03*
D11*
X121920000Y-91440000D03*
%TD*%
D10*
%TO.C,D19*%
X154940000Y-91440000D03*
D11*
X152400000Y-91440000D03*
%TD*%
D10*
%TO.C,D27*%
X175260000Y-101600000D03*
D11*
X172720000Y-101600000D03*
%TD*%
D12*
%TO.C,C2*%
X144740000Y-59690000D03*
X139740000Y-59690000D03*
%TD*%
%TO.C,R23*%
X137160000Y-105410000D03*
D14*
X137160000Y-97790000D03*
%TD*%
D15*
%TO.C,H1*%
X153670000Y-50165000D03*
%TD*%
D10*
%TO.C,D29*%
X134620000Y-111760000D03*
D11*
X132080000Y-111760000D03*
%TD*%
D12*
%TO.C,R6*%
X170180000Y-74930000D03*
D14*
X177800000Y-74930000D03*
%TD*%
D10*
%TO.C,D18*%
X144780000Y-91440000D03*
D11*
X142240000Y-91440000D03*
%TD*%
D12*
%TO.C,R50*%
X137160000Y-62230000D03*
D14*
X144780000Y-62230000D03*
%TD*%
D10*
%TO.C,D12*%
X165105000Y-81280000D03*
D11*
X162565000Y-81280000D03*
%TD*%
D12*
%TO.C,R1*%
X129540000Y-64770000D03*
D14*
X137160000Y-64770000D03*
%TD*%
D10*
%TO.C,D11*%
X154940000Y-81280000D03*
D11*
X152400000Y-81280000D03*
%TD*%
D10*
%TO.C,D43*%
X195580000Y-121920000D03*
D11*
X193040000Y-121920000D03*
%TD*%
D10*
%TO.C,D39*%
X154940000Y-121920000D03*
D11*
X152400000Y-121920000D03*
%TD*%
D12*
%TO.C,R25*%
X149860000Y-97790000D03*
D14*
X157480000Y-97790000D03*
%TD*%
D12*
%TO.C,R31*%
X149860000Y-107950000D03*
D14*
X157480000Y-107950000D03*
%TD*%
D12*
%TO.C,R4*%
X139700000Y-74930000D03*
D14*
X147320000Y-74930000D03*
%TD*%
D10*
%TO.C,D26*%
X165105000Y-101600000D03*
D11*
X162565000Y-101600000D03*
%TD*%
D14*
%TO.C,R39*%
X157480000Y-118110000D03*
D12*
X149860000Y-118110000D03*
%TD*%
%TO.C,R45*%
X139700000Y-128270000D03*
D14*
X147320000Y-128270000D03*
%TD*%
D12*
%TO.C,R27*%
X170180000Y-105410000D03*
D14*
X170180000Y-97790000D03*
%TD*%
D10*
%TO.C,D17*%
X134620000Y-91440000D03*
D11*
X132080000Y-91440000D03*
%TD*%
D16*
%TO.C,Q2*%
X148590000Y-59690000D03*
D17*
X148590000Y-57150000D03*
X148590000Y-54610000D03*
%TD*%
D10*
%TO.C,D30*%
X144780000Y-111760000D03*
D11*
X142240000Y-111760000D03*
%TD*%
D12*
%TO.C,R26*%
X160020000Y-105410000D03*
D14*
X160020000Y-97790000D03*
%TD*%
D10*
%TO.C,D45*%
X144780000Y-132080000D03*
D11*
X142240000Y-132080000D03*
%TD*%
D12*
%TO.C,R5*%
X160020000Y-74930000D03*
D14*
X167640000Y-74930000D03*
%TD*%
D12*
%TO.C,R11*%
X149860000Y-77470000D03*
D14*
X157480000Y-77470000D03*
%TD*%
D12*
%TO.C,R35*%
X116840000Y-125730000D03*
D14*
X116840000Y-118110000D03*
%TD*%
D18*
%TO.C,J1*%
X165095000Y-60890000D03*
D19*
X167635000Y-60890000D03*
%TD*%
D12*
%TO.C,R16*%
X127000000Y-95250000D03*
D14*
X127000000Y-87630000D03*
%TD*%
D10*
%TO.C,D25*%
X154945000Y-101600000D03*
D11*
X152405000Y-101600000D03*
%TD*%
D12*
%TO.C,R43*%
X190500000Y-125730000D03*
D14*
X190500000Y-118110000D03*
%TD*%
D10*
%TO.C,D41*%
X175265000Y-121920000D03*
D11*
X172725000Y-121920000D03*
%TD*%
D10*
%TO.C,D47*%
X175265000Y-132080000D03*
D11*
X172725000Y-132080000D03*
%TD*%
D10*
%TO.C,D14*%
X184785000Y-81280000D03*
D11*
X182245000Y-81280000D03*
%TD*%
D16*
%TO.C,Q1*%
X148590000Y-67310000D03*
D17*
X148590000Y-64770000D03*
X148590000Y-62230000D03*
%TD*%
D10*
%TO.C,D42*%
X185420000Y-121920000D03*
D11*
X182880000Y-121920000D03*
%TD*%
D12*
%TO.C,C3*%
X144740000Y-64770000D03*
X139740000Y-64770000D03*
%TD*%
%TO.C,R2*%
X170180000Y-64770000D03*
D14*
X177800000Y-64770000D03*
%TD*%
D12*
%TO.C,R51*%
X137160000Y-54610000D03*
D14*
X144780000Y-54610000D03*
%TD*%
D12*
%TO.C,R52*%
X137160000Y-57150000D03*
D14*
X144780000Y-57150000D03*
%TD*%
D12*
%TO.C,R33*%
X170180000Y-115570000D03*
D14*
X170180000Y-107950000D03*
%TD*%
D12*
%TO.C,R29*%
X137160000Y-115570000D03*
D14*
X137160000Y-107950000D03*
%TD*%
D10*
%TO.C,D24*%
X144780000Y-101600000D03*
D11*
X142240000Y-101600000D03*
%TD*%
D12*
%TO.C,R13*%
X170180000Y-85090000D03*
D14*
X170180000Y-77470000D03*
%TD*%
D12*
%TO.C,R19*%
X149860000Y-87630000D03*
D14*
X157480000Y-87630000D03*
%TD*%
D10*
%TO.C,D20*%
X165100000Y-91440000D03*
D11*
X162560000Y-91440000D03*
%TD*%
D12*
%TO.C,R15*%
X190500000Y-85090000D03*
D14*
X190500000Y-77470000D03*
%TD*%
D12*
%TO.C,R24*%
X147320000Y-105410000D03*
D14*
X147320000Y-97790000D03*
%TD*%
D10*
%TO.C,D3*%
X134620000Y-71120000D03*
D11*
X132080000Y-71120000D03*
%TD*%
D12*
%TO.C,R8*%
X127000000Y-85090000D03*
D14*
X127000000Y-77470000D03*
%TD*%
D10*
%TO.C,D10*%
X144780000Y-81280000D03*
D11*
X142240000Y-81280000D03*
%TD*%
D10*
%TO.C,D1*%
X134625000Y-60960000D03*
D11*
X132085000Y-60960000D03*
%TD*%
D12*
%TO.C,R37*%
X137160000Y-125730000D03*
D14*
X137160000Y-118110000D03*
%TD*%
D12*
%TO.C,R30*%
X147320000Y-115570000D03*
D14*
X147320000Y-107950000D03*
%TD*%
D10*
%TO.C,D4*%
X144785000Y-71120000D03*
D11*
X142245000Y-71120000D03*
%TD*%
D12*
%TO.C,R3*%
X129540000Y-74930000D03*
D14*
X137160000Y-74930000D03*
%TD*%
D12*
%TO.C,R28*%
X127000000Y-115570000D03*
D14*
X127000000Y-107950000D03*
%TD*%
D10*
%TO.C,D23*%
X134625000Y-101600000D03*
D11*
X132085000Y-101600000D03*
%TD*%
D12*
%TO.C,R32*%
X160020000Y-115570000D03*
D14*
X160020000Y-107950000D03*
%TD*%
D10*
%TO.C,D32*%
X165100000Y-111760000D03*
D11*
X162560000Y-111760000D03*
%TD*%
D12*
%TO.C,R12*%
X160020000Y-85090000D03*
D14*
X160020000Y-77470000D03*
%TD*%
D12*
%TO.C,R38*%
X147320000Y-125730000D03*
D14*
X147320000Y-118110000D03*
%TD*%
D10*
%TO.C,D44*%
X134620000Y-132080000D03*
D11*
X132080000Y-132080000D03*
%TD*%
D12*
%TO.C,R18*%
X147320000Y-95250000D03*
D14*
X147320000Y-87630000D03*
%TD*%
D10*
%TO.C,D7*%
X114935000Y-81280000D03*
D11*
X112395000Y-81280000D03*
%TD*%
D10*
%TO.C,D35*%
X114300000Y-121920000D03*
D11*
X111760000Y-121920000D03*
%TD*%
D12*
%TO.C,R47*%
X170180000Y-128270000D03*
D14*
X177800000Y-128270000D03*
%TD*%
D10*
%TO.C,D37*%
X134620000Y-121920000D03*
D11*
X132080000Y-121920000D03*
%TD*%
D12*
%TO.C,R36*%
X127000000Y-125730000D03*
D14*
X127000000Y-118110000D03*
%TD*%
D10*
%TO.C,D2*%
X175260000Y-60960000D03*
D11*
X172720000Y-60960000D03*
%TD*%
D13*
%TO.C,U1*%
X160010000Y-72390000D03*
D14*
X160010000Y-69850000D03*
X160010000Y-67310000D03*
X160010000Y-64770000D03*
X160010000Y-62230000D03*
X160010000Y-59690000D03*
X160010000Y-57150000D03*
X160010000Y-54610000D03*
X152390000Y-54610000D03*
X152390000Y-57150000D03*
X152390000Y-59690000D03*
X152390000Y-62230000D03*
X152390000Y-64770000D03*
X152390000Y-67310000D03*
X152390000Y-69850000D03*
X152390000Y-72390000D03*
%TD*%
D12*
%TO.C,R10*%
X147320000Y-85090000D03*
D14*
X147320000Y-77470000D03*
%TD*%
D10*
%TO.C,D28*%
X124460000Y-111760000D03*
D11*
X121920000Y-111760000D03*
%TD*%
D10*
%TO.C,D49*%
X175265000Y-142240000D03*
D11*
X172725000Y-142240000D03*
%TD*%
D10*
%TO.C,D13*%
X175260000Y-81280000D03*
D11*
X172720000Y-81280000D03*
%TD*%
D10*
%TO.C,D15*%
X195585000Y-81280000D03*
D11*
X193045000Y-81280000D03*
%TD*%
D10*
%TO.C,D31*%
X154945000Y-111760000D03*
D11*
X152405000Y-111760000D03*
%TD*%
D12*
%TO.C,R14*%
X180340000Y-85090000D03*
D14*
X180340000Y-77470000D03*
%TD*%
D10*
%TO.C,D36*%
X124460000Y-121920000D03*
D11*
X121920000Y-121920000D03*
%TD*%
D12*
%TO.C,R17*%
X137160000Y-95250000D03*
D14*
X137160000Y-87630000D03*
%TD*%
D10*
%TO.C,D48*%
X134625000Y-142240000D03*
D11*
X132085000Y-142240000D03*
%TD*%
D12*
%TO.C,R20*%
X160020000Y-95250000D03*
D14*
X160020000Y-87630000D03*
%TD*%
D10*
%TO.C,D21*%
X175265000Y-91440000D03*
D11*
X172725000Y-91440000D03*
%TD*%
D10*
%TO.C,D34*%
X185420000Y-111760000D03*
D11*
X182880000Y-111760000D03*
%TD*%
D14*
%TO.C,R49*%
X177800000Y-138430000D03*
D12*
X170180000Y-138430000D03*
%TD*%
%TO.C,R34*%
X180340000Y-115570000D03*
D14*
X180340000Y-107950000D03*
%TD*%
D10*
%TO.C,D38*%
X144780000Y-121920000D03*
D11*
X142240000Y-121920000D03*
%TD*%
D12*
%TO.C,R22*%
X180340000Y-95250000D03*
D14*
X180340000Y-87630000D03*
%TD*%
D11*
%TO.C,D8*%
X121930000Y-81280000D03*
D10*
X124470000Y-81280000D03*
%TD*%
D12*
%TO.C,R40*%
X160020000Y-125730000D03*
D14*
X160020000Y-118110000D03*
%TD*%
D12*
%TO.C,R41*%
X170180000Y-125730000D03*
D14*
X170180000Y-118110000D03*
%TD*%
D12*
%TO.C,R42*%
X180340000Y-125730000D03*
D14*
X180340000Y-118110000D03*
%TD*%
D12*
%TO.C,R53*%
X137160000Y-67310000D03*
D14*
X144780000Y-67310000D03*
%TD*%
D12*
%TO.C,R44*%
X129540000Y-128270000D03*
D14*
X137160000Y-128270000D03*
%TD*%
D10*
%TO.C,D33*%
X175265000Y-111760000D03*
D11*
X172725000Y-111760000D03*
%TD*%
D12*
%TO.C,R9*%
X137160000Y-85090000D03*
D14*
X137160000Y-77470000D03*
%TD*%
D10*
%TO.C,D6*%
X175260000Y-71120000D03*
D11*
X172720000Y-71120000D03*
%TD*%
D12*
%TO.C,R21*%
X170180000Y-95250000D03*
D14*
X170180000Y-87630000D03*
%TD*%
D12*
%TO.C,R48*%
X129540000Y-138430000D03*
D14*
X137160000Y-138430000D03*
%TD*%
D11*
%TO.C,D22*%
X182885000Y-91440000D03*
D10*
X185425000Y-91440000D03*
%TD*%
%TO.C,D9*%
X134620000Y-81280000D03*
D11*
X132080000Y-81280000D03*
%TD*%
D10*
%TO.C,D46*%
X165105000Y-132080000D03*
D11*
X162565000Y-132080000D03*
%TD*%
D12*
%TO.C,R7*%
X116840000Y-85090000D03*
D14*
X116840000Y-77470000D03*
%TD*%
D12*
%TO.C,C1*%
X152440000Y-74930000D03*
X157440000Y-74930000D03*
%TD*%
M02*
